<?xml version="1.0" encoding="iso-8859-1"?>
<!-- Generator: Adobe Illustrator 19.0.0, SVG Export Plug-In . SVG Version: 6.00 Build 0)  -->
<svg version="1.1" id="Layer_1" xmlns="http://www.w3.org/2000/svg" xmlns:xlink="http://www.w3.org/1999/xlink" x="0px" y="0px"
	 viewBox="0 0 512 512" style="enable-background:new 0 0 512 512;" xml:space="preserve">
<circle style="fill:#006C70;" cx="256" cy="256" r="256"/>
<path style="fill:#023737;" d="M282.115,510.683c113.195-11.469,204.581-96.689,225.404-206.855L297.475,93.784l-39.807,201.33
	l-72.33,119.055L282.115,510.683z"/>
<path style="fill:#E6F3FF;" d="M303.063,152.843h-31.375v-47.063c0-8.664,7.023-15.688,15.688-15.688l0,0
	c8.664,0,15.688,7.023,15.688,15.688L303.063,152.843L303.063,152.843z"/>
<path style="fill:#22BFBF;" d="M308.134,421.907H203.869c-14.527,0-26.305-11.778-26.305-26.305V165.836
	c0-14.527,11.778-26.305,26.305-26.305h104.265c14.527,0,26.305,11.778,26.305,26.305v229.766
	C334.438,410.131,322.662,421.907,308.134,421.907z"/>
<path style="fill:#006C70;" d="M308.134,139.531h-54.431v282.376h54.431c14.527,0,26.305-11.778,26.305-26.305V165.836
	C334.438,151.309,322.662,139.531,308.134,139.531z"/>
<rect x="198.956" y="159.496" style="fill:#E6F3FF;" width="114.088" height="76.059"/>
<rect x="253.707" y="159.496" style="fill:#CFDBE6;" width="59.344" height="76.059"/>
<circle style="fill:#FFD300;" cx="256" cy="321.508" r="56.889"/>
<path style="fill:#F4A200;" d="M256,264.62c-0.771,0-1.534,0.028-2.298,0.059V378.34c0.764,0.031,1.527,0.059,2.298,0.059
	c31.418,0,56.889-25.471,56.889-56.889S287.42,264.62,256,264.62z"/>
<g>
</g>
<g>
</g>
<g>
</g>
<g>
</g>
<g>
</g>
<g>
</g>
<g>
</g>
<g>
</g>
<g>
</g>
<g>
</g>
<g>
</g>
<g>
</g>
<g>
</g>
<g>
</g>
<g>
</g>
</svg>
